<svg xmlns="http://www.w3.org/2000/svg" width="37.784" height="38.667" viewBox="0 0 37.784 38.667">
  <g id="Group_1" data-name="Group 1" transform="translate(-3.109 -2.667)">
    <path id="Path_1" data-name="Path 1" d="M12.394,40.333H31.607c5.06,0,7.077-3.1,7.315-6.875l.953-15.143A6.881,6.881,0,0,0,33,11a3.013,3.013,0,0,1-2.658-1.632L29.022,6.71a6.051,6.051,0,0,0-4.913-3.043h-4.2A6.056,6.056,0,0,0,14.979,6.71l-1.32,2.658A3.013,3.013,0,0,1,11,11a6.881,6.881,0,0,0-6.875,7.315l.953,15.143C5.3,37.235,7.334,40.333,12.394,40.333Z" fill="none" stroke="#fff" stroke-linecap="round" stroke-linejoin="round" stroke-width="2"/>
    <path id="Path_2" data-name="Path 2" d="M19.25,14.667h5.5" fill="none" stroke="#fff" stroke-linecap="round" stroke-linejoin="round" stroke-width="2"/>
    <path id="Path_3" data-name="Path 3" d="M22,33a5.958,5.958,0,1,0-5.958-5.958A5.97,5.97,0,0,0,22,33Z" fill="none" stroke="#fff" stroke-linecap="round" stroke-linejoin="round" stroke-width="2"/>
  </g>
</svg>
