<svg width="99" height="90" viewBox="0 0 99 90" fill="none" xmlns="http://www.w3.org/2000/svg">
<path d="M26.489 82.6372H23.7524V89.3723H24.9546V86.7026H26.6258C27.1968 86.7231 27.7532 86.5181 28.1765 86.1312C28.5602 85.7514 28.7802 85.2345 28.7887 84.6924C28.7973 84.1504 28.5937 83.6268 28.2221 83.2348C27.8529 82.8386 27.2752 82.6394 26.489 82.6372ZM27.2317 85.3858C26.993 85.5849 26.6873 85.6837 26.3782 85.6616H24.9546V83.6453H26.2739C26.4482 83.6258 26.6246 83.6419 26.7925 83.6927C26.9604 83.7434 27.1165 83.8279 27.2513 83.9409C27.4291 84.1331 27.5261 84.3874 27.5217 84.6502C27.53 84.7856 27.5095 84.9212 27.4618 85.048C27.4141 85.1748 27.3401 85.29 27.2447 85.3858H27.2317Z" fill="#CBC3BB"/>
<path d="M35.011 84.6108C35.0204 84.347 34.9748 84.0842 34.8771 83.8393C34.7795 83.5943 34.632 83.3728 34.4442 83.1889C34.0663 82.8211 33.4734 82.6372 32.6654 82.6372H29.7693V89.3723H30.9747V86.604H32.6785L33.7177 89.3723H34.9882L33.8187 86.3972C34.184 86.272 34.4986 86.0295 34.7139 85.7068C34.9293 85.3841 35.0337 84.9991 35.011 84.6108ZM33.4408 85.3562C33.1579 85.5622 32.8114 85.66 32.4635 85.632H30.9682V83.6059H32.5612C32.8764 83.5867 33.1878 83.6836 33.4375 83.8785C33.542 83.9659 33.6256 84.076 33.682 84.2005C33.7384 84.325 33.7662 84.4608 33.7633 84.5976C33.7699 84.7404 33.7443 84.8829 33.6885 85.0142C33.6326 85.1456 33.5479 85.2625 33.4408 85.3562Z" fill="#CBC3BB"/>
<path d="M37.4156 82.6372H36.2102V89.3723H37.4156V82.6372Z" fill="#CBC3BB"/>
<path d="M42.5399 82.6372L40.9729 87.7994L39.4418 82.6372H38.168L40.2302 89.3723H41.4518L43.5433 82.6372H42.5399Z" fill="#CBC3BB"/>
<path d="M45.4587 82.6372L43.2402 89.3723H44.2697L44.7909 87.7698H47.3613L47.8955 89.3723H49.1986L46.9573 82.6372H45.4587ZM45.0906 86.7978L46.0679 83.7931L47.0453 86.7978H45.0906Z" fill="#CBC3BB"/>
<path d="M48.71 83.6814H50.4855V89.3723H51.7755V83.6814H53.5542V82.6372H48.71V83.6814Z" fill="#CBC3BB"/>
<path d="M55.4927 86.4431H57.9784V85.4646H55.4927V83.6387H58.5844V82.6372H54.2874V89.3723H58.63V88.328H55.4927V86.4431Z" fill="#CBC3BB"/>
<path d="M65.1289 85.4548L63.9952 85.1691C63.373 85.0148 63.0635 84.7455 63.0635 84.3613C63.0618 84.2446 63.0879 84.1291 63.1394 84.0246C63.191 83.9201 63.2666 83.8295 63.36 83.7604C63.6108 83.5832 63.9145 83.4985 64.22 83.5206C64.8715 83.5206 65.282 83.7757 65.4514 84.2858L66.5949 84.0001C66.5334 83.7707 66.4252 83.5568 66.2771 83.3719C66.129 83.187 65.9443 83.0353 65.7349 82.9263C65.2628 82.6665 64.7317 82.5352 64.1939 82.5454C63.58 82.5189 62.9766 82.712 62.4901 83.0905C62.2774 83.2643 62.1077 83.4856 61.9946 83.737C61.8815 83.9884 61.8281 84.2628 61.8386 84.5386C61.8364 84.834 61.901 85.126 62.0275 85.3924C62.1368 85.6398 62.3101 85.853 62.5292 86.0098C62.8303 86.1964 63.1609 86.3297 63.5066 86.4039L64.7836 86.7322C65.0434 86.771 65.2812 86.9013 65.4547 87.1C65.5574 87.2495 65.6119 87.4272 65.6111 87.609C65.6103 87.7357 65.5784 87.8602 65.5181 87.9714C65.4579 88.0826 65.3711 88.177 65.2658 88.2461C64.9751 88.4337 64.6329 88.5234 64.2884 88.5022C63.3502 88.5022 62.8127 88.1738 62.6596 87.5171L61.49 87.7699C61.5544 88.0449 61.6745 88.3035 61.8427 88.5295C62.0109 88.7555 62.2235 88.9441 62.4673 89.0835C63.0017 89.372 63.6009 89.5168 64.207 89.5038C64.8929 89.5344 65.5694 89.3333 66.1291 88.9324C66.3687 88.7524 66.5612 88.5164 66.6901 88.2446C66.8189 87.9729 66.8801 87.6735 66.8685 87.3726C66.8717 86.9692 66.7486 86.575 66.5167 86.2462C66.28 85.8872 65.8174 85.6234 65.1289 85.4548Z" fill="#CBC3BB"/>
<path d="M69.1036 82.6372H67.8982V89.3723H69.1036V82.6372Z" fill="#CBC3BB"/>
<path d="M74.6678 87.3298L74.241 86.604L71.902 82.6372H70.5696V89.3723H71.5469V84.4466C71.6284 84.5878 71.6902 84.6896 71.7293 84.7553L71.9183 85.0836L74.4528 89.3854H75.6256V82.6503H74.6743L74.6678 87.3298Z" fill="#CBC3BB"/>
<path d="M79.6457 86.9063H81.0238C81.0429 87.3239 80.8977 87.7322 80.6198 88.0425C80.4896 88.1824 80.3313 88.2929 80.1555 88.3665C79.9797 88.4401 79.7904 88.4752 79.6001 88.4694C78.5446 88.4694 78.0158 87.6199 78.0136 85.9211C78.0136 85.1133 78.1635 84.5156 78.4632 84.1281C78.5955 83.9448 78.7697 83.7963 78.971 83.6951C79.1723 83.5939 79.3947 83.5431 79.6196 83.5469C80.3581 83.5469 80.8261 83.9574 81.0238 84.7783L82.0727 84.5912C81.9683 84.0236 81.6795 83.5072 81.2518 83.1233C80.7913 82.7232 80.1979 82.5132 79.5903 82.5355C79.1849 82.5171 78.7813 82.5994 78.4149 82.7752C78.0485 82.951 77.7306 83.2149 77.4891 83.5436C76.974 84.2589 76.7092 85.1263 76.7365 86.0098C76.7194 86.8659 76.9541 87.708 77.4109 88.43C77.6291 88.7702 77.9326 89.0464 78.2907 89.2303C78.6489 89.4143 79.0489 89.4995 79.4502 89.4775C79.8147 89.4955 80.177 89.4103 80.496 89.2316C80.8149 89.0528 81.0779 88.7877 81.255 88.4661L81.6232 89.3724H82.1574V85.9309H79.6457V86.9063Z" fill="#CBC3BB"/>
<path d="M61.5878 27.2655C61.5878 25.5696 61.2564 23.8903 60.6125 22.3235C59.9685 20.7568 59.0247 19.3332 57.8349 18.1342C56.645 16.9352 55.2326 15.9841 53.6781 15.3355C52.1236 14.6868 50.4575 14.3531 48.7751 14.3535H47.1039V17.7194H48.7751C51.2868 17.7203 53.6954 18.7262 55.4718 20.5162C57.2481 22.3061 58.2469 24.7337 58.2486 27.2655V28.1521H43.6604V31.5213H61.5781L61.5878 27.2655Z" fill="#CBC3BB"/>
<path d="M99.0002 0.495605H95.6577V31.5769H99.0002V0.495605Z" fill="#CBC3BB"/>
<path d="M74.5438 35.1891H77.8863V31.5474C81.1842 31.4076 84.301 29.9891 86.5859 27.588C88.8708 25.1869 90.1472 21.9888 90.1485 18.6617V0.495605H86.8093V18.6617C86.813 21.0984 85.89 23.4438 84.2301 25.2153C82.5703 26.9867 80.2999 28.0495 77.8863 28.1847V11.7656H74.5438V28.2077H66.9956V31.5769H74.5438V35.1891Z" fill="#CBC3BB"/>
<path d="M38.2756 0.495605H34.9331V31.5769H38.2756V0.495605Z" fill="#CBC3BB"/>
<path d="M14.8717 31.521H29.4013V28.1518H14.8717V27.3309C14.8717 25.4845 15.5994 23.7138 16.8946 22.4082C18.1898 21.1026 19.9465 20.3692 21.7782 20.3692H25.5963V17H21.7782C20.4325 17 19.0999 17.2672 17.8566 17.7864C16.6134 18.3057 15.4837 19.0667 14.5323 20.026C13.5809 20.9854 12.8262 22.1243 12.3115 23.3777C11.7968 24.631 11.5321 25.9744 11.5325 27.3309V28.1617H3.10474V31.5309H14.8717V31.521Z" fill="#CBC3BB"/>
<path d="M73.0453 6.62019H79.4761V4.93887H73.0453V4.67287C73.0444 4.28047 73.1204 3.89175 73.2689 3.52902C73.4174 3.16629 73.6354 2.83668 73.9105 2.55907C74.1856 2.28145 74.5124 2.06131 74.8721 1.91124C75.2318 1.76118 75.6173 1.68417 76.0066 1.6846H77.7918V0H76.0066C74.7776 0.000870523 73.5993 0.493568 72.7307 1.36981C71.862 2.24605 71.374 3.43411 71.374 4.67287V4.94541H67.6406V6.62672H73.0453V6.62019Z" fill="#CBC3BB"/>
<path d="M86.9074 40.3677V53.4176C86.9074 53.6048 86.9074 53.792 86.9074 53.9824C86.8479 55.1593 86.5522 56.3117 86.0382 57.37C85.5241 58.4283 84.8024 59.3705 83.9168 60.1396C82.1821 61.6498 79.967 62.4818 77.6749 62.4842C75.6592 62.4852 73.6984 61.8222 72.0911 60.5961L70.99 59.7619L62.1159 53.0564L60.1123 55.7524L68.7486 62.2807L68.9865 62.458L74.1989 66.3985H62.5654C60.0531 66.3977 57.644 65.3913 55.8676 63.6006C54.0911 61.81 53.0927 59.3816 53.0919 56.8492V38.6831H49.7527V56.8492C49.7523 58.5454 50.0834 60.225 50.7271 61.7922C51.3709 63.3593 52.3146 64.7833 53.5045 65.9826C54.6943 67.182 56.107 68.1333 57.6617 68.7822C59.2164 69.4311 60.8827 69.7649 62.5654 69.7644H78.6555L85.3143 74.7986L87.3178 72.1025L78.9389 65.7812C81.5881 65.5182 84.0916 64.4354 86.106 62.6813C87.3244 61.6168 88.318 60.3161 89.0277 58.8567C89.7373 57.3973 90.1485 55.8089 90.2368 54.186C90.2368 53.9299 90.2596 53.6737 90.2596 53.4176V38.6831H86.9172L86.9074 40.3677Z" fill="#CBC3BB"/>
<path d="M44.299 69.7415V53.063H31.786C30.0011 53.0631 28.2361 53.4405 26.6049 54.1707C24.9737 54.9009 23.5125 55.9678 22.3157 57.3024V51.7429H18.9764V65.535C18.9764 67.6252 18.1527 69.6298 16.6864 71.1078C15.2202 72.5858 13.2315 73.4161 11.1578 73.4161C9.08421 73.4161 7.09555 72.5858 5.62928 71.1078C4.163 69.6298 3.33922 67.6252 3.33922 65.535V54.1467H2.2095e-05V65.535C-0.00513682 68.1483 0.893259 70.6818 2.54065 72.6997C4.18804 74.7177 6.4815 76.094 9.02662 76.5919C11.5717 77.0898 14.2094 76.6783 16.4861 75.4281C18.7628 74.1779 20.5361 72.1671 21.5012 69.7415H44.299ZM25.0783 59.2333C25.956 58.3452 26.9994 57.641 28.1484 57.1613C29.2974 56.6817 30.5293 56.4362 31.7729 56.4388H40.9435V66.3789H22.3026V65.9848C22.3023 64.7286 22.5485 63.4848 23.0271 62.325C23.5057 61.1651 24.2072 60.1121 25.0913 59.2268L25.0783 59.2333Z" fill="#CBC3BB"/>
<path d="M99.0002 38.6831H95.6577V69.9451H99.0002V38.6831Z" fill="#CBC3BB"/>
<path d="M74.6286 47.8571L71.5366 51.9722L75.619 55.0889L78.711 50.9738L74.6286 47.8571Z" fill="#CBC3BB"/>
<path d="M4.05572 3.08327L5.07866 6.0978H5.5445L6.55765 3.08327V6.0978H7.39818V2.25903H6.16674L5.38161 4.56099L4.58347 2.25903H3.36182V6.0978H4.05572V3.08327Z" fill="#CBC3BB"/>
<path d="M1.08149 6.0978H1.96107V2.90922H3.02636V2.25903H0.0129395V2.90922H1.08149V6.0978Z" fill="#CBC3BB"/>
</svg>
