<svg width="243" height="44" viewBox="0 0 243 44" fill="none" xmlns="http://www.w3.org/2000/svg">
<path d="M199.461 34.6321C199.461 32.6743 199.075 30.7357 198.326 28.927C197.577 27.1183 196.479 25.475 195.094 24.0908C193.71 22.7066 192.066 21.6087 190.257 20.8599C188.449 20.111 186.51 19.7258 184.552 19.7263H182.608V23.612H184.552C187.475 23.613 190.277 24.7742 192.344 26.8406C194.411 28.9069 195.574 31.7094 195.576 34.6321V35.6556H178.601V39.5451H199.45L199.461 34.6321Z" fill="#CBC3BB"/>
<path d="M242.991 3.72852H239.102V39.6093H242.991V3.72852Z" fill="#CBC3BB"/>
<path d="M214.535 43.7792H218.425V39.5751C222.262 39.4138 225.889 37.7763 228.547 35.0044C231.206 32.2325 232.691 28.5406 232.693 24.6997V3.72852H228.807V24.6997C228.812 27.5126 227.738 30.2202 225.806 32.2653C223.875 34.3103 221.233 35.5371 218.425 35.6932V16.7388H214.535V35.7198H205.752V39.6093H214.535V43.7792Z" fill="#CBC3BB"/>
<path d="M172.335 3.72852H168.446V39.6093H172.335V3.72852Z" fill="#CBC3BB"/>
<path d="M145.104 39.5448H162.009V35.6553H145.104V34.7076C145.104 32.5761 145.95 30.532 147.457 29.0248C148.964 27.5176 151.008 26.6709 153.14 26.6709H157.582V22.7815H153.14C151.574 22.7815 150.023 23.09 148.577 23.6894C147.13 24.2888 145.816 25.1673 144.709 26.2748C143.602 27.3823 142.724 28.697 142.125 30.144C141.526 31.5909 141.218 33.1416 141.218 34.7076V35.6667H131.412V39.5562H145.104V39.5448Z" fill="#CBC3BB"/>
<path d="M212.792 10.7987H220.275V8.85776H212.792V8.55067C212.791 8.09769 212.88 7.64894 213.052 7.2302C213.225 6.81146 213.479 6.43096 213.799 6.11048C214.119 5.78999 214.499 5.53585 214.918 5.36262C215.337 5.18938 215.785 5.10048 216.238 5.10098H218.316V3.15625H216.238C214.808 3.15725 213.437 3.72603 212.426 4.73758C211.415 5.74912 210.848 7.12064 210.848 8.55067V8.8653H206.503V10.8062H212.792V10.7987Z" fill="#CBC3BB"/>
<path d="M132.519 6.71592L133.709 10.1959H134.251L135.43 6.71592V10.1959H136.408V5.7644H134.975L134.062 8.42182L133.133 5.7644H131.711V10.1959H132.519V6.71592Z" fill="#CBC3BB"/>
<path d="M129.058 10.1959H130.082V6.51499H131.321V5.7644H127.815V6.51499H129.058V10.1959Z" fill="#CBC3BB"/>
<path d="M101.121 1.94473V17.0097C101.121 17.2258 101.121 17.4419 101.121 17.6618C101.051 19.0203 100.707 20.3507 100.109 21.5724C99.5112 22.7942 98.6715 23.8818 97.6409 24.7697C95.6225 26.5131 93.0452 27.4736 90.3782 27.4764C88.0329 27.4775 85.7514 26.7121 83.8812 25.2966L82.6 24.3337L72.2745 16.5927L69.9433 19.7051L79.9921 27.2414L80.2688 27.446L86.3337 31.9951H72.7976C69.8745 31.9941 67.0714 30.8323 65.0044 28.7652C62.9374 26.698 61.7757 23.8946 61.7747 20.9712V0H57.8894V20.9712C57.8889 22.9293 58.2742 24.8683 59.0232 26.6774C59.7722 28.4866 60.8703 30.1304 62.2548 31.515C63.6392 32.8996 65.2829 33.9978 67.0919 34.7469C68.9009 35.496 70.8397 35.8812 72.7976 35.8808H91.5192L99.2671 41.6922L101.598 38.5799L91.849 31.2824C94.9314 30.9788 97.8443 29.7288 100.188 27.7038C101.606 26.4749 102.762 24.9735 103.588 23.2887C104.413 21.6039 104.892 19.7703 104.995 17.8968C104.995 17.6011 105.021 17.3054 105.021 17.0097V0H101.132L101.121 1.94473Z" fill="#CBC3BB"/>
<path d="M51.544 35.854V16.6001H36.9845C34.9077 16.6003 32.8541 17.0359 30.9561 17.8788C29.0581 18.7218 27.3579 19.9534 25.9653 21.4942V15.0762H22.08V30.9979C22.08 33.4109 21.1215 35.725 19.4155 37.4312C17.7094 39.1375 15.3954 40.096 12.9827 40.096C10.5699 40.096 8.25601 39.1375 6.54993 37.4312C4.84385 35.725 3.88534 33.4109 3.88534 30.9979V17.8511H2.57086e-05V30.9979C-0.00597693 34.0148 1.03935 36.9395 2.95617 39.269C4.87298 41.5986 7.54153 43.1874 10.5029 43.7622C13.4643 44.337 16.5333 43.862 19.1823 42.4187C21.8314 40.9754 23.8948 38.6541 25.0177 35.854H51.544ZM29.1797 23.7232C30.201 22.6979 31.4151 21.885 32.752 21.3313C34.0889 20.7776 35.5223 20.4941 36.9693 20.4972H47.6397V31.9722H25.9502V31.5172C25.9498 30.0671 26.2363 28.6312 26.7932 27.2922C27.35 25.9533 28.1663 24.7377 29.1949 23.7156L29.1797 23.7232Z" fill="#CBC3BB"/>
<path d="M115.191 0H111.302V36.0893H115.191V0Z" fill="#CBC3BB"/>
<path d="M86.8346 10.5902L83.2368 15.3408L87.9872 18.939L91.585 14.1884L86.8346 10.5902Z" fill="#CBC3BB"/>
</svg>
