<svg xmlns="http://www.w3.org/2000/svg" width="38.667" height="38.667" viewBox="0 0 38.667 38.667">
  <g id="Group_3" data-name="Group 3" transform="translate(-2.667 -2.667)">
    <path id="Path_8" data-name="Path 8" d="M40.333,27.5v-11c0-9.167-3.667-12.833-12.833-12.833h-11C7.333,3.667,3.667,7.333,3.667,16.5v11c0,9.167,3.667,12.833,12.833,12.833h11C36.667,40.333,40.333,36.667,40.333,27.5Z" fill="none" stroke="#fff" stroke-linecap="round" stroke-linejoin="round" stroke-width="2"/>
    <path id="Path_9" data-name="Path 9" d="M4.62,13.035H39.38" fill="none" stroke="#fff" stroke-linecap="round" stroke-linejoin="round" stroke-width="2"/>
    <path id="Path_10" data-name="Path 10" d="M15.62,3.868v8.91" fill="none" stroke="#fff" stroke-linecap="round" stroke-linejoin="round" stroke-width="2"/>
    <path id="Path_11" data-name="Path 11" d="M28.38,3.868v8.085" fill="none" stroke="#fff" stroke-linecap="round" stroke-linejoin="round" stroke-width="2"/>
    <path id="Path_12" data-name="Path 12" d="M17.875,26.492v-2.2c0-2.823,2-3.978,4.437-2.567l1.907,1.1,1.907,1.1c2.438,1.412,2.438,3.722,0,5.133l-1.907,1.1-1.907,1.1c-2.438,1.412-4.437.257-4.437-2.567v-2.2Z" fill="none" stroke="#fff" stroke-linecap="round" stroke-linejoin="round" stroke-miterlimit="10" stroke-width="2"/>
  </g>
</svg>
