<svg xmlns="http://www.w3.org/2000/svg" width="38.667" height="38.667" viewBox="0 0 38.667 38.667">
  <g id="Group_2" data-name="Group 2" transform="translate(-4.667 -2.667)">
    <path id="Path_4" data-name="Path 4" d="M18.5,23.833a7.731,7.731,0,0,0-2.97,2.622,1.885,1.885,0,0,0,0,2.09,7.731,7.731,0,0,0,2.97,2.622" fill="none" stroke="#fff" stroke-linecap="round" stroke-linejoin="round" stroke-width="2"/>
    <path id="Path_5" data-name="Path 5" d="M29.885,23.833a7.731,7.731,0,0,1,2.97,2.622,1.885,1.885,0,0,1,0,2.09,7.731,7.731,0,0,1-2.97,2.622" fill="none" stroke="#fff" stroke-linecap="round" stroke-linejoin="round" stroke-width="2"/>
    <path id="Path_6" data-name="Path 6" d="M18.5,40.333h11c9.167,0,12.833-3.667,12.833-12.833v-11c0-9.167-3.667-12.833-12.833-12.833h-11C9.333,3.667,5.667,7.333,5.667,16.5v11C5.667,36.667,9.333,40.333,18.5,40.333Z" fill="none" stroke="#fff" stroke-linecap="round" stroke-linejoin="round" stroke-width="2"/>
    <path id="Path_7" data-name="Path 7" d="M6.088,14.685l35.237-.018" fill="none" stroke="#fff" stroke-linecap="round" stroke-linejoin="round" stroke-width="2"/>
  </g>
</svg>
